<svg width="180" height="46" viewBox="0 0 180 46" fill="none" xmlns="http://www.w3.org/2000/svg">
<path d="M27.4029 18.8672C27.4029 17.3708 26.7754 15.9666 25.6876 14.9519C25.915 14.0437 26.0328 13.083 26.0328 12.1289C26.0328 5.44067 20.5013 0 13.7015 0C6.90161 0 1.37015 5.44067 1.37015 12.1289C1.37015 13.0633 1.48387 14.0201 1.702 14.9426C0.622229 15.9521 0 17.359 0 18.8672C0 21.8402 2.45795 24.2578 5.48058 24.2578C7.11563 24.2578 8.58616 23.5498 9.59102 22.4285C10.5959 23.5498 12.0664 24.2578 13.7015 24.2578C15.3365 24.2578 16.807 23.5498 17.8119 22.4285C18.8168 23.5498 20.2873 24.2578 21.9223 24.2578C25.1092 24.2578 27.4029 21.6664 27.4029 18.8672Z" fill="#8896FE"/>
<path d="M27.4029 18.8672C27.4029 17.3708 26.7754 15.9666 25.6876 14.9519C25.915 14.0437 26.0328 13.083 26.0328 12.1289C26.0328 5.44067 20.5013 0 13.7015 0C6.90161 0 1.37015 5.44067 1.37015 12.1289C1.37015 13.0633 1.48387 14.0201 1.702 14.9426C0.622229 15.9521 0 17.359 0 18.8672C0 21.8402 2.45795 24.2578 5.48058 24.2578C7.11563 24.2578 8.58616 23.5498 9.59102 22.4285C10.5959 23.5498 12.0664 24.2578 13.7015 24.2578C15.3365 24.2578 16.807 23.5498 17.8119 22.4285C18.8168 23.5498 20.2873 24.2578 21.9223 24.2578C25.1092 24.2578 27.4029 21.6664 27.4029 18.8672Z" fill="url(#paint0_linear_1_133)"/>
<path d="M8.79004 35.4289L12.4185 45.1248C12.6191 45.6512 13.1303 45.9999 13.7016 45.9999C14.273 45.9999 14.7842 45.6512 14.9848 45.126L21.8486 26.9434C21.0692 26.9363 20.3097 26.8026 19.5758 26.5887L8.79004 35.4289Z" fill="#8896FE"/>
<path d="M8.79004 35.4289L12.4185 45.1248C12.6191 45.6512 13.1303 45.9999 13.7016 45.9999C14.273 45.9999 14.7842 45.6512 14.9848 45.126L21.8486 26.9434C21.0692 26.9363 20.3097 26.8026 19.5758 26.5887L8.79004 35.4289Z" fill="url(#paint1_linear_1_133)"/>
<path d="M13.7012 26.9529C12.2441 26.9529 10.8284 26.5712 9.59074 25.8671C8.37451 26.559 6.98463 26.9302 5.5542 26.9432L7.77046 32.7556L15.0672 26.7747C14.6145 26.8507 14.1668 26.9529 13.7012 26.9529Z" fill="#8896FE"/>
<path d="M13.7012 26.9529C12.2441 26.9529 10.8284 26.5712 9.59074 25.8671C8.37451 26.559 6.98463 26.9302 5.5542 26.9432L7.77046 32.7556L15.0672 26.7747C14.6145 26.8507 14.1668 26.9529 13.7012 26.9529Z" fill="url(#paint2_linear_1_133)"/>
<path d="M49.5685 27.5957C49.5685 28.671 49.3721 29.6079 48.9794 30.4065C48.5945 31.205 48.0643 31.8692 47.3888 32.3989C46.7133 32.9366 45.9161 33.3358 44.9971 33.5968C44.0859 33.8656 43.108 34 42.0633 34C41.6627 34 41.2779 33.9644 40.9087 33.8933C40.5395 33.83 40.2135 33.7391 39.9308 33.6205C39.648 33.5019 39.4242 33.3596 39.2592 33.1935C39.0864 33.0354 39 32.8615 39 32.6717C39 32.5294 39.0196 32.3831 39.0589 32.2329C39.0982 32.0906 39.1571 31.9601 39.2356 31.8415C39.3142 31.7229 39.4124 31.6241 39.5302 31.545C39.6402 31.4659 39.7658 31.4264 39.9072 31.4264C39.9936 31.4264 40.0682 31.4699 40.1311 31.5569C40.2018 31.6438 40.2725 31.7506 40.3432 31.8771C40.4138 32.0115 40.4924 32.1538 40.5788 32.304C40.673 32.4543 40.7909 32.5926 40.9323 32.7191C41.0815 32.8535 41.2582 32.9642 41.4624 33.0512C41.6667 33.1382 41.9219 33.1817 42.2283 33.1817C42.8331 33.1817 43.3515 33.071 43.7835 32.8496C44.2234 32.6282 44.5847 32.3159 44.8675 31.9127C45.1502 31.5094 45.3584 31.0271 45.4919 30.4658C45.6333 29.9123 45.704 29.3035 45.704 28.6394V13.8976C45.704 13.7236 45.6843 13.5853 45.6451 13.4825C45.6058 13.3797 45.5508 13.3006 45.4801 13.2453C45.4094 13.182 45.323 13.1425 45.2209 13.1267C45.1267 13.103 45.0206 13.0911 44.9028 13.0911C44.73 13.0911 44.514 13.1188 44.2548 13.1741C44.0034 13.2295 43.7364 13.3125 43.4536 13.4232C43.1708 13.5339 42.8841 13.6722 42.5935 13.8383C42.3108 13.9964 42.0555 14.1783 41.8277 14.3838C41.6078 14.5894 41.4271 14.8187 41.2857 15.0717C41.1443 15.3247 41.0736 15.5975 41.0736 15.89C41.0736 16.143 41.1051 16.3447 41.1679 16.4949C41.2386 16.6451 41.3171 16.7597 41.4035 16.8388C41.4899 16.91 41.5763 16.9574 41.6627 16.9811C41.757 16.9969 41.8238 17.0049 41.863 17.0049C42.0594 17.0049 42.2204 16.9732 42.3461 16.91C42.4718 16.8388 42.5857 16.7677 42.6878 16.6965C42.7899 16.6174 42.8841 16.5463 42.9705 16.483C43.0648 16.4119 43.1708 16.3763 43.2887 16.3763C43.3829 16.3763 43.4811 16.4 43.5832 16.4474C43.6932 16.487 43.7914 16.5542 43.8778 16.6491C43.972 16.7439 44.0506 16.8704 44.1134 17.0286C44.1762 17.1788 44.2077 17.3646 44.2077 17.586C44.2077 17.9022 44.1448 18.175 44.0191 18.4043C43.9013 18.6336 43.7442 18.8273 43.5479 18.9854C43.3594 19.1357 43.1394 19.2503 42.8881 19.3294C42.6446 19.4005 42.4011 19.4361 42.1576 19.4361C41.7806 19.4361 41.4389 19.3729 41.1325 19.2464C40.8341 19.1119 40.5788 18.9301 40.3667 18.7008C40.1546 18.4715 39.9936 18.2027 39.8837 17.8943C39.7737 17.586 39.7187 17.2579 39.7187 16.91C39.7187 16.3644 39.8169 15.8663 40.0133 15.4156C40.2096 14.9571 40.4767 14.5459 40.8144 14.1822C41.16 13.8185 41.5606 13.5022 42.0162 13.2334C42.4796 12.9567 42.9784 12.7274 43.5125 12.5456C44.0466 12.3637 44.6043 12.2293 45.1856 12.1423C45.7668 12.0474 46.3481 12 46.9293 12C47.5734 12 48.0722 12.0633 48.4256 12.1898C48.7869 12.3084 49.0501 12.4546 49.215 12.6286C49.3878 12.8025 49.4899 12.9844 49.5214 13.1741C49.5528 13.3639 49.5685 13.522 49.5685 13.6485V27.5957Z" fill="#212542"/>
<path d="M63.1296 27.6668C63.1296 27.738 63.1335 27.8171 63.1414 27.904C63.1492 27.9831 63.1689 28.0622 63.2003 28.1412C63.2317 28.2124 63.2788 28.2717 63.3417 28.3191C63.4045 28.3666 63.4948 28.3903 63.6127 28.3903C63.7619 28.3903 63.8954 28.3389 64.0133 28.2361C64.1311 28.1254 64.241 28.0147 64.3432 27.904L64.6259 28.1531C64.5081 28.3191 64.3589 28.5049 64.1782 28.7105C64.0054 28.9082 63.7933 29.0979 63.542 29.2798C63.2906 29.4616 63.0039 29.6119 62.6819 29.7305C62.3598 29.857 61.9946 29.9202 61.5862 29.9202C61.2405 29.9202 60.9381 29.8728 60.6789 29.7779C60.4276 29.6909 60.2116 29.5723 60.0309 29.4221C59.8581 29.264 59.7285 29.0821 59.6421 28.8766C59.5557 28.6631 59.5125 28.4377 59.5125 28.2005V27.6668C59.1198 28.0938 58.7074 28.4694 58.2754 28.7935C58.0869 28.9359 57.8866 29.0742 57.6745 29.2086C57.4624 29.343 57.2425 29.4656 57.0147 29.5763C56.7869 29.6791 56.5513 29.7621 56.3078 29.8253C56.0643 29.8886 55.8208 29.9202 55.5773 29.9202C55.106 29.9202 54.7015 29.8372 54.3638 29.6712C54.0339 29.4972 53.7668 29.2719 53.5626 28.9951C53.3584 28.7184 53.2091 28.4061 53.1149 28.0582C53.0206 27.7103 52.9735 27.3624 52.9735 27.0146V19.6733C52.9735 19.6022 52.9696 19.527 52.9617 19.448C52.9539 19.361 52.9342 19.2819 52.9028 19.2108C52.8714 19.1317 52.8243 19.0685 52.7614 19.021C52.6986 18.9736 52.6082 18.9499 52.4904 18.9499C52.349 18.9499 52.2155 19.0052 52.0898 19.1159C51.972 19.2187 51.866 19.3254 51.7717 19.4361L51.4772 19.1871C51.595 19.021 51.7403 18.8392 51.9131 18.6415C52.0938 18.4359 52.3098 18.2422 52.5611 18.0604C52.8125 17.8785 53.0992 17.7283 53.4212 17.6097C53.7511 17.4832 54.1163 17.4199 54.5169 17.4199C54.8625 17.4199 55.1649 17.4674 55.4242 17.5623C55.6834 17.6492 55.8994 17.7718 56.0722 17.9299C56.245 18.0801 56.3746 18.262 56.461 18.4755C56.5474 18.681 56.5906 18.9024 56.5906 19.1396V27.062C56.5906 27.1727 56.6063 27.2873 56.6377 27.4059C56.677 27.5166 56.728 27.6194 56.7909 27.7143C56.8616 27.8092 56.948 27.8882 57.0501 27.9515C57.1522 28.0068 57.2739 28.0345 57.4153 28.0345C57.6431 28.0345 57.8709 27.9752 58.0987 27.8566C58.3265 27.738 58.5346 27.5996 58.7231 27.4415C58.9116 27.2755 59.0727 27.1134 59.2062 26.9553C59.3476 26.7971 59.4497 26.6785 59.5125 26.5995V19.6733C59.5125 19.6022 59.5086 19.527 59.5007 19.448C59.4929 19.361 59.4732 19.2819 59.4418 19.2108C59.4104 19.1317 59.3633 19.0685 59.3004 19.021C59.2376 18.9736 59.1473 18.9499 59.0295 18.9499C58.8881 18.9499 58.7545 19.0052 58.6289 19.1159C58.511 19.2187 58.405 19.3254 58.3108 19.4361L58.0162 19.1871C58.134 19.021 58.2793 18.8392 58.4521 18.6415C58.6328 18.4359 58.8488 18.2422 59.1001 18.0604C59.3515 17.8785 59.6382 17.7283 59.9602 17.6097C60.2901 17.4832 60.6554 17.4199 61.056 17.4199C61.4016 17.4199 61.704 17.4674 61.9632 17.5623C62.2224 17.6492 62.4384 17.7718 62.6112 17.9299C62.784 18.0801 62.9136 18.262 63 18.4755C63.0864 18.681 63.1296 18.9024 63.1296 19.1396V27.6668Z" fill="#212542"/>
<path d="M70.0221 18.3687C69.8414 18.3687 69.6686 18.3925 69.5037 18.4399C69.3466 18.4873 69.2052 18.5664 69.0795 18.6771C68.9539 18.7799 68.8557 18.9143 68.785 19.0803C68.7143 19.2385 68.6789 19.4282 68.6789 19.6496C68.6789 19.958 68.7889 20.2663 69.0088 20.5747C69.2366 20.8751 69.5155 21.1914 69.8454 21.5234C70.1831 21.8476 70.5444 22.1876 70.9293 22.5434C71.322 22.8913 71.6834 23.2629 72.0133 23.6582C72.351 24.0456 72.6298 24.4607 72.8498 24.9035C73.0776 25.3463 73.1915 25.8207 73.1915 26.3267C73.1915 26.896 73.0933 27.402 72.8969 27.8447C72.7084 28.2875 72.4335 28.6631 72.0722 28.9714C71.7187 29.2798 71.2867 29.517 70.7761 29.683C70.2734 29.8412 69.7118 29.9202 69.0913 29.9202C68.5493 29.9202 68.0584 29.8451 67.6186 29.6949C67.1787 29.5367 66.786 29.347 66.4404 29.1256C66.1026 28.8963 65.812 28.6552 65.5685 28.4022C65.325 28.1491 65.1365 27.9199 65.0029 27.7143L65.4153 27.4178C65.5174 27.5364 65.647 27.6668 65.8041 27.8092C65.9612 27.9436 66.134 28.0701 66.3225 28.1887C66.5189 28.3073 66.727 28.4061 66.947 28.4852C67.1669 28.5563 67.3908 28.5919 67.6186 28.5919C68.1841 28.5919 68.6475 28.4575 69.0088 28.1887C69.3701 27.9119 69.5508 27.5048 69.5508 26.9671C69.5508 26.6667 69.4526 26.3583 69.2563 26.042C69.0599 25.7179 68.8125 25.3858 68.514 25.0458C68.2155 24.7058 67.8935 24.354 67.5479 23.9903C67.2023 23.6266 66.8802 23.251 66.5817 22.8636C66.2833 22.4762 66.0358 22.0769 65.8395 21.6658C65.6431 21.2546 65.5449 20.8277 65.5449 20.3849C65.5449 19.8868 65.6431 19.4519 65.8395 19.0803C66.0437 18.7087 66.3108 18.4004 66.6406 18.1553C66.9784 17.9102 67.3594 17.7283 67.7835 17.6097C68.2155 17.4832 68.6593 17.4199 69.1149 17.4199C69.6411 17.4199 70.1203 17.4674 70.5523 17.5623C70.9843 17.6571 71.3535 17.8034 71.6598 18.0011C71.974 18.1908 72.2136 18.432 72.3785 18.7245C72.5513 19.0171 72.6377 19.3571 72.6377 19.7445C72.6377 20.0449 72.5395 20.3058 72.3432 20.5272C72.1468 20.7486 71.8719 20.8593 71.5184 20.8593C71.1807 20.8593 70.9215 20.7881 70.7408 20.6458C70.568 20.4956 70.4816 20.294 70.4816 20.041C70.4816 19.8749 70.5209 19.7445 70.5994 19.6496C70.6858 19.5547 70.7801 19.4796 70.8822 19.4243C70.9843 19.361 71.0746 19.3096 71.1532 19.2701C71.2396 19.2226 71.2828 19.1633 71.2828 19.0922C71.2828 18.8708 71.1649 18.6969 70.9293 18.5704C70.6937 18.4359 70.3913 18.3687 70.0221 18.3687Z" fill="#212542"/>
<path d="M78.9647 18.4399V27.2043C78.9647 27.6234 79.0432 27.9159 79.2003 28.0819C79.3574 28.2401 79.5734 28.3191 79.8483 28.3191C80.0604 28.3191 80.2489 28.2598 80.4138 28.1412C80.5788 28.0226 80.7202 27.8882 80.838 27.738C80.9794 27.572 81.1011 27.3783 81.2032 27.1569L81.5685 27.3229C81.4507 27.5759 81.3093 27.8526 81.1443 28.1531C80.9872 28.4535 80.7752 28.7342 80.5081 28.9951C80.241 29.2482 79.9033 29.4616 79.4948 29.6356C79.0943 29.8095 78.5876 29.8965 77.975 29.8965C77.6294 29.8965 77.2955 29.8451 76.9735 29.7423C76.6593 29.6395 76.3765 29.4774 76.1252 29.2561C75.8817 29.0347 75.6853 28.758 75.5361 28.4259C75.3868 28.0938 75.3122 27.6945 75.3122 27.228V18.4399H73.9926V17.586C74.2126 17.586 74.5189 17.5306 74.9116 17.4199C75.3044 17.3013 75.705 17.1076 76.1134 16.8388C76.5297 16.57 76.9146 16.2102 77.268 15.7596C77.6215 15.3089 77.8729 14.7515 78.0221 14.0873H78.9647V17.586H80.8851C81.5135 17.586 81.8277 17.4792 81.8277 17.2658C81.8277 17.1867 81.7884 17.1353 81.7099 17.1116C81.6313 17.08 81.541 17.0444 81.4389 17.0049C81.3446 16.9574 81.2582 16.8942 81.1797 16.8151C81.1011 16.736 81.0619 16.6056 81.0619 16.4237C81.0619 16.2023 81.1286 16.0284 81.2621 15.9019C81.4035 15.7754 81.5842 15.7121 81.8041 15.7121C81.9455 15.7121 82.0673 15.7438 82.1694 15.807C82.2793 15.8624 82.3697 15.9414 82.4404 16.0442C82.511 16.1391 82.5621 16.2498 82.5935 16.3763C82.6328 16.5028 82.6524 16.6293 82.6524 16.7558C82.6524 17.2697 82.5032 17.6809 82.2047 17.9892C81.9141 18.2897 81.4428 18.4399 80.7909 18.4399H78.9647Z" fill="#212542"/>
<path d="M88.1931 28.7319C88.1931 28.8356 88.1735 28.9632 88.1343 29.1147C88.103 29.2583 88.0208 29.3978 87.8876 29.5334C87.7623 29.661 87.5782 29.7687 87.3354 29.8564C87.0926 29.9521 86.7636 30 86.3485 30C85.9333 30 85.6083 29.9482 85.3733 29.8445C85.1383 29.7488 84.9621 29.6331 84.8446 29.4975C84.7271 29.362 84.6527 29.2224 84.6214 29.0788C84.5979 28.9353 84.5861 28.8196 84.5861 28.7319V19.4961C84.5861 19.2648 84.5313 19.0654 84.4216 18.898C84.3198 18.7225 84.1436 18.6348 83.8929 18.6348C83.7598 18.6348 83.6462 18.6587 83.5522 18.7065C83.4582 18.7544 83.3564 18.8222 83.2467 18.9099L83 18.6108C83.1802 18.4593 83.3799 18.3118 83.5992 18.1682C83.8263 18.0167 84.0692 17.8851 84.3276 17.7734C84.5861 17.6617 84.8642 17.57 85.1618 17.4982C85.4595 17.4265 85.7728 17.3906 86.1017 17.3906C86.6109 17.3906 87.0064 17.4624 87.2884 17.6059C87.5704 17.7415 87.7779 17.913 87.9111 18.1203C88.0443 18.3197 88.1226 18.5351 88.1461 18.7664C88.1774 18.9977 88.1931 19.201 88.1931 19.3765V28.7319ZM84.2219 14.6629C84.2219 14.4396 84.2689 14.2282 84.3629 14.0289C84.4647 13.8215 84.6018 13.642 84.7741 13.4905C84.9543 13.339 85.1579 13.2193 85.3851 13.1316C85.62 13.0439 85.8746 13 86.1487 13C86.4151 13 86.6618 13.0439 86.8889 13.1316C87.1239 13.2193 87.3276 13.339 87.4999 13.4905C87.6722 13.642 87.8054 13.8215 87.8993 14.0289C88.0012 14.2282 88.0521 14.4396 88.0521 14.6629C88.0521 14.8942 88.0012 15.1095 87.8993 15.3089C87.8054 15.5083 87.6722 15.6838 87.4999 15.8353C87.3276 15.9789 87.1239 16.0945 86.8889 16.1823C86.6618 16.27 86.4151 16.3139 86.1487 16.3139C85.8746 16.3139 85.62 16.27 85.3851 16.1823C85.1579 16.0945 84.9543 15.9789 84.7741 15.8353C84.6018 15.6838 84.4647 15.5083 84.3629 15.3089C84.2689 15.1095 84.2219 14.8942 84.2219 14.6629Z" fill="#8896FE"/>
<path d="M88.1931 28.7319C88.1931 28.8356 88.1735 28.9632 88.1343 29.1147C88.103 29.2583 88.0208 29.3978 87.8876 29.5334C87.7623 29.661 87.5782 29.7687 87.3354 29.8564C87.0926 29.9521 86.7636 30 86.3485 30C85.9333 30 85.6083 29.9482 85.3733 29.8445C85.1383 29.7488 84.9621 29.6331 84.8446 29.4975C84.7271 29.362 84.6527 29.2224 84.6214 29.0788C84.5979 28.9353 84.5861 28.8196 84.5861 28.7319V19.4961C84.5861 19.2648 84.5313 19.0654 84.4216 18.898C84.3198 18.7225 84.1436 18.6348 83.8929 18.6348C83.7598 18.6348 83.6462 18.6587 83.5522 18.7065C83.4582 18.7544 83.3564 18.8222 83.2467 18.9099L83 18.6108C83.1802 18.4593 83.3799 18.3118 83.5992 18.1682C83.8263 18.0167 84.0692 17.8851 84.3276 17.7734C84.5861 17.6617 84.8642 17.57 85.1618 17.4982C85.4595 17.4265 85.7728 17.3906 86.1017 17.3906C86.6109 17.3906 87.0064 17.4624 87.2884 17.6059C87.5704 17.7415 87.7779 17.913 87.9111 18.1203C88.0443 18.3197 88.1226 18.5351 88.1461 18.7664C88.1774 18.9977 88.1931 19.201 88.1931 19.3765V28.7319ZM84.2219 14.6629C84.2219 14.4396 84.2689 14.2282 84.3629 14.0289C84.4647 13.8215 84.6018 13.642 84.7741 13.4905C84.9543 13.339 85.1579 13.2193 85.3851 13.1316C85.62 13.0439 85.8746 13 86.1487 13C86.4151 13 86.6618 13.0439 86.8889 13.1316C87.1239 13.2193 87.3276 13.339 87.4999 13.4905C87.6722 13.642 87.8054 13.8215 87.8993 14.0289C88.0012 14.2282 88.0521 14.4396 88.0521 14.6629C88.0521 14.8942 88.0012 15.1095 87.8993 15.3089C87.8054 15.5083 87.6722 15.6838 87.4999 15.8353C87.3276 15.9789 87.1239 16.0945 86.8889 16.1823C86.6618 16.27 86.4151 16.3139 86.1487 16.3139C85.8746 16.3139 85.62 16.27 85.3851 16.1823C85.1579 16.0945 84.9543 15.9789 84.7741 15.8353C84.6018 15.6838 84.4647 15.5083 84.3629 15.3089C84.2689 15.1095 84.2219 14.8942 84.2219 14.6629Z" fill="url(#paint3_linear_1_133)"/>
<path d="M98.6262 21.5299C98.3834 21.5299 98.1797 21.494 98.0153 21.4222C97.8508 21.3425 97.7176 21.2388 97.6158 21.1112C97.514 20.9836 97.4396 20.844 97.3926 20.6925C97.3456 20.533 97.3221 20.3695 97.3221 20.202C97.3221 19.9866 97.3338 19.7793 97.3573 19.5799C97.3886 19.3805 97.3926 19.201 97.3691 19.0415C97.3534 18.882 97.2947 18.7544 97.1928 18.6587C97.091 18.563 96.9109 18.5151 96.6524 18.5151C96.3782 18.5151 96.0884 18.5949 95.7829 18.7544C95.4775 18.9139 95.1994 19.1651 94.9488 19.5081C94.6981 19.851 94.4906 20.2937 94.3261 20.836C94.1616 21.3704 94.0793 22.0164 94.0793 22.7741C94.0793 23.6115 94.1537 24.3772 94.3026 25.0711C94.4592 25.757 94.6903 26.3432 94.9958 26.8297C95.3012 27.3162 95.6811 27.6951 96.1354 27.9662C96.5897 28.2294 97.1223 28.361 97.7333 28.361C98.0074 28.361 98.2659 28.3291 98.5087 28.2653C98.7594 28.2015 98.9943 28.1138 99.2137 28.0021C99.433 27.8905 99.6405 27.7628 99.8364 27.6193C100.04 27.4677 100.236 27.3082 100.424 27.1407L100.718 27.4279C100.537 27.6751 100.306 27.9463 100.024 28.2414C99.7424 28.5365 99.4016 28.8156 99.0022 29.0788C98.6027 29.334 98.1367 29.5494 97.604 29.7248C97.0714 29.8923 96.4644 29.9761 95.7829 29.9761C95.1015 29.9761 94.4357 29.8445 93.7856 29.5813C93.1433 29.3101 92.5715 28.9193 92.0703 28.4089C91.569 27.8984 91.1656 27.2803 90.8601 26.5545C90.5625 25.8208 90.4136 24.9873 90.4136 24.0542C90.4136 23.3284 90.5037 22.6624 90.6839 22.0563C90.864 21.4422 91.1068 20.8879 91.4123 20.3934C91.7256 19.8989 92.0859 19.4642 92.4932 19.0894C92.9083 18.7145 93.3431 18.4035 93.7974 18.1562C94.2517 17.901 94.7138 17.7096 95.1837 17.582C95.6615 17.4544 96.1198 17.3906 96.5584 17.3906C97.138 17.3906 97.6432 17.4584 98.074 17.5939C98.5048 17.7295 98.8612 17.909 99.1432 18.1323C99.433 18.3556 99.6484 18.6148 99.7894 18.9099C99.9304 19.197 100.001 19.4961 100.001 19.8072C100.001 20.0385 99.9695 20.2618 99.9069 20.4771C99.852 20.6845 99.7659 20.8679 99.6484 21.0274C99.5387 21.179 99.3977 21.3026 99.2254 21.3983C99.0531 21.486 98.8534 21.5299 98.6262 21.5299Z" fill="#8896FE"/>
<path d="M98.6262 21.5299C98.3834 21.5299 98.1797 21.494 98.0153 21.4222C97.8508 21.3425 97.7176 21.2388 97.6158 21.1112C97.514 20.9836 97.4396 20.844 97.3926 20.6925C97.3456 20.533 97.3221 20.3695 97.3221 20.202C97.3221 19.9866 97.3338 19.7793 97.3573 19.5799C97.3886 19.3805 97.3926 19.201 97.3691 19.0415C97.3534 18.882 97.2947 18.7544 97.1928 18.6587C97.091 18.563 96.9109 18.5151 96.6524 18.5151C96.3782 18.5151 96.0884 18.5949 95.7829 18.7544C95.4775 18.9139 95.1994 19.1651 94.9488 19.5081C94.6981 19.851 94.4906 20.2937 94.3261 20.836C94.1616 21.3704 94.0793 22.0164 94.0793 22.7741C94.0793 23.6115 94.1537 24.3772 94.3026 25.0711C94.4592 25.757 94.6903 26.3432 94.9958 26.8297C95.3012 27.3162 95.6811 27.6951 96.1354 27.9662C96.5897 28.2294 97.1223 28.361 97.7333 28.361C98.0074 28.361 98.2659 28.3291 98.5087 28.2653C98.7594 28.2015 98.9943 28.1138 99.2137 28.0021C99.433 27.8905 99.6405 27.7628 99.8364 27.6193C100.04 27.4677 100.236 27.3082 100.424 27.1407L100.718 27.4279C100.537 27.6751 100.306 27.9463 100.024 28.2414C99.7424 28.5365 99.4016 28.8156 99.0022 29.0788C98.6027 29.334 98.1367 29.5494 97.604 29.7248C97.0714 29.8923 96.4644 29.9761 95.7829 29.9761C95.1015 29.9761 94.4357 29.8445 93.7856 29.5813C93.1433 29.3101 92.5715 28.9193 92.0703 28.4089C91.569 27.8984 91.1656 27.2803 90.8601 26.5545C90.5625 25.8208 90.4136 24.9873 90.4136 24.0542C90.4136 23.3284 90.5037 22.6624 90.6839 22.0563C90.864 21.4422 91.1068 20.8879 91.4123 20.3934C91.7256 19.8989 92.0859 19.4642 92.4932 19.0894C92.9083 18.7145 93.3431 18.4035 93.7974 18.1562C94.2517 17.901 94.7138 17.7096 95.1837 17.582C95.6615 17.4544 96.1198 17.3906 96.5584 17.3906C97.138 17.3906 97.6432 17.4584 98.074 17.5939C98.5048 17.7295 98.8612 17.909 99.1432 18.1323C99.433 18.3556 99.6484 18.6148 99.7894 18.9099C99.9304 19.197 100.001 19.4961 100.001 19.8072C100.001 20.0385 99.9695 20.2618 99.9069 20.4771C99.852 20.6845 99.7659 20.8679 99.6484 21.0274C99.5387 21.179 99.3977 21.3026 99.2254 21.3983C99.0531 21.486 98.8534 21.5299 98.6262 21.5299Z" fill="url(#paint4_linear_1_133)"/>
<path d="M105.335 24.3174C105.335 24.5726 105.37 24.8517 105.441 25.1548C105.519 25.4499 105.629 25.749 105.77 26.0521C105.911 26.3551 106.083 26.6463 106.287 26.9254C106.498 27.1966 106.737 27.4398 107.003 27.6552C107.277 27.8705 107.579 28.042 107.908 28.1696C108.237 28.2972 108.597 28.361 108.989 28.361C109.263 28.361 109.518 28.3291 109.753 28.2653C109.988 28.2015 110.207 28.1138 110.41 28.0021C110.614 27.8905 110.81 27.7628 110.998 27.6193C111.186 27.4677 111.374 27.3082 111.562 27.1407L111.856 27.4279C111.675 27.6751 111.444 27.9463 111.162 28.2414C110.88 28.5365 110.54 28.8156 110.14 29.0788C109.741 29.334 109.275 29.5494 108.742 29.7248C108.21 29.8923 107.602 29.9761 106.921 29.9761C106.24 29.9761 105.574 29.8525 104.924 29.6052C104.281 29.35 103.71 28.9711 103.208 28.4687C102.707 27.9662 102.304 27.3401 101.998 26.5904C101.701 25.8407 101.552 24.9634 101.552 23.9585C101.552 23.2327 101.642 22.5667 101.822 21.9606C102.002 21.3544 102.245 20.8081 102.55 20.3216C102.864 19.8351 103.224 19.4084 103.631 19.0415C104.046 18.6746 104.481 18.3716 104.935 18.1323C105.39 17.8851 105.852 17.7016 106.322 17.582C106.8 17.4544 107.258 17.3906 107.696 17.3906C108.276 17.3906 108.781 17.4544 109.212 17.582C109.643 17.7096 109.999 17.8811 110.281 18.0964C110.571 18.3118 110.786 18.563 110.927 18.8501C111.068 19.1293 111.139 19.4243 111.139 19.7354C111.139 20.1103 111.033 20.4492 110.822 20.7523C110.61 21.0474 110.328 21.3066 109.976 21.5299L105.335 24.3174ZM107.696 21.8888C107.798 21.825 107.881 21.7652 107.943 21.7094C108.014 21.6456 108.069 21.5738 108.108 21.494C108.147 21.4063 108.174 21.3026 108.19 21.183C108.213 21.0554 108.225 20.8998 108.225 20.7164C108.225 20.517 108.202 20.2977 108.155 20.0584C108.116 19.8112 108.045 19.5799 107.943 19.3645C107.841 19.1492 107.712 18.9697 107.555 18.8262C107.399 18.6826 107.211 18.6108 106.992 18.6108C106.71 18.6108 106.467 18.6986 106.263 18.874C106.067 19.0415 105.903 19.2608 105.77 19.532C105.644 19.8032 105.542 20.1142 105.464 20.4652C105.394 20.8081 105.339 21.1551 105.3 21.506C105.26 21.8569 105.237 22.1959 105.229 22.5229C105.221 22.8419 105.217 23.1131 105.217 23.3364L107.696 21.8888Z" fill="#8896FE"/>
<path d="M105.335 24.3174C105.335 24.5726 105.37 24.8517 105.441 25.1548C105.519 25.4499 105.629 25.749 105.77 26.0521C105.911 26.3551 106.083 26.6463 106.287 26.9254C106.498 27.1966 106.737 27.4398 107.003 27.6552C107.277 27.8705 107.579 28.042 107.908 28.1696C108.237 28.2972 108.597 28.361 108.989 28.361C109.263 28.361 109.518 28.3291 109.753 28.2653C109.988 28.2015 110.207 28.1138 110.41 28.0021C110.614 27.8905 110.81 27.7628 110.998 27.6193C111.186 27.4677 111.374 27.3082 111.562 27.1407L111.856 27.4279C111.675 27.6751 111.444 27.9463 111.162 28.2414C110.88 28.5365 110.54 28.8156 110.14 29.0788C109.741 29.334 109.275 29.5494 108.742 29.7248C108.21 29.8923 107.602 29.9761 106.921 29.9761C106.24 29.9761 105.574 29.8525 104.924 29.6052C104.281 29.35 103.71 28.9711 103.208 28.4687C102.707 27.9662 102.304 27.3401 101.998 26.5904C101.701 25.8407 101.552 24.9634 101.552 23.9585C101.552 23.2327 101.642 22.5667 101.822 21.9606C102.002 21.3544 102.245 20.8081 102.55 20.3216C102.864 19.8351 103.224 19.4084 103.631 19.0415C104.046 18.6746 104.481 18.3716 104.935 18.1323C105.39 17.8851 105.852 17.7016 106.322 17.582C106.8 17.4544 107.258 17.3906 107.696 17.3906C108.276 17.3906 108.781 17.4544 109.212 17.582C109.643 17.7096 109.999 17.8811 110.281 18.0964C110.571 18.3118 110.786 18.563 110.927 18.8501C111.068 19.1293 111.139 19.4243 111.139 19.7354C111.139 20.1103 111.033 20.4492 110.822 20.7523C110.61 21.0474 110.328 21.3066 109.976 21.5299L105.335 24.3174ZM107.696 21.8888C107.798 21.825 107.881 21.7652 107.943 21.7094C108.014 21.6456 108.069 21.5738 108.108 21.494C108.147 21.4063 108.174 21.3026 108.19 21.183C108.213 21.0554 108.225 20.8998 108.225 20.7164C108.225 20.517 108.202 20.2977 108.155 20.0584C108.116 19.8112 108.045 19.5799 107.943 19.3645C107.841 19.1492 107.712 18.9697 107.555 18.8262C107.399 18.6826 107.211 18.6108 106.992 18.6108C106.71 18.6108 106.467 18.6986 106.263 18.874C106.067 19.0415 105.903 19.2608 105.77 19.532C105.644 19.8032 105.542 20.1142 105.464 20.4652C105.394 20.8081 105.339 21.1551 105.3 21.506C105.26 21.8569 105.237 22.1959 105.229 22.5229C105.221 22.8419 105.217 23.1131 105.217 23.3364L107.696 21.8888Z" fill="url(#paint5_linear_1_133)"/>
<path d="M126.33 21.5299C126.088 21.5299 125.884 21.494 125.719 21.4222C125.555 21.3425 125.422 21.2388 125.32 21.1112C125.218 20.9836 125.144 20.844 125.097 20.6925C125.05 20.533 125.026 20.3695 125.026 20.202C125.026 19.9866 125.038 19.7793 125.062 19.5799C125.093 19.3805 125.097 19.201 125.073 19.0415C125.058 18.882 124.999 18.7544 124.897 18.6587C124.795 18.563 124.615 18.5151 124.357 18.5151C124.082 18.5151 123.793 18.5949 123.487 18.7544C123.182 18.9139 122.904 19.1651 122.653 19.5081C122.402 19.851 122.195 20.2937 122.03 20.836C121.866 21.3704 121.784 22.0164 121.784 22.7741C121.784 23.6115 121.858 24.3772 122.007 25.0711C122.163 25.757 122.395 26.3432 122.7 26.8297C123.005 27.3162 123.385 27.6951 123.84 27.9662C124.294 28.2294 124.827 28.361 125.438 28.361C125.712 28.361 125.97 28.3291 126.213 28.2653C126.464 28.2015 126.699 28.1138 126.918 28.0021C127.137 27.8905 127.345 27.7628 127.541 27.6193C127.744 27.4677 127.94 27.3082 128.128 27.1407L128.422 27.4279C128.242 27.6751 128.011 27.9463 127.729 28.2414C127.447 28.5365 127.106 28.8156 126.706 29.0788C126.307 29.334 125.841 29.5494 125.308 29.7248C124.776 29.8923 124.169 29.9761 123.487 29.9761C122.806 29.9761 122.14 29.8445 121.49 29.5813C120.848 29.3101 120.276 28.9193 119.774 28.4089C119.273 27.8984 118.87 27.2803 118.564 26.5545C118.267 25.8208 118.118 24.9873 118.118 24.0542C118.118 23.3284 118.208 22.6624 118.388 22.0563C118.568 21.4422 118.811 20.8879 119.117 20.3934C119.43 19.8989 119.79 19.4642 120.197 19.0894C120.613 18.7145 121.047 18.4035 121.502 18.1562C121.956 17.901 122.418 17.7096 122.888 17.582C123.366 17.4544 123.824 17.3906 124.263 17.3906C124.842 17.3906 125.347 17.4584 125.778 17.5939C126.209 17.7295 126.565 17.909 126.847 18.1323C127.137 18.3556 127.353 18.6148 127.494 18.9099C127.635 19.197 127.705 19.4961 127.705 19.8072C127.705 20.0385 127.674 20.2618 127.611 20.4771C127.556 20.6845 127.47 20.8679 127.353 21.0274C127.243 21.179 127.102 21.3026 126.93 21.3983C126.757 21.486 126.558 21.5299 126.33 21.5299Z" fill="#8896FE"/>
<path d="M126.33 21.5299C126.088 21.5299 125.884 21.494 125.719 21.4222C125.555 21.3425 125.422 21.2388 125.32 21.1112C125.218 20.9836 125.144 20.844 125.097 20.6925C125.05 20.533 125.026 20.3695 125.026 20.202C125.026 19.9866 125.038 19.7793 125.062 19.5799C125.093 19.3805 125.097 19.201 125.073 19.0415C125.058 18.882 124.999 18.7544 124.897 18.6587C124.795 18.563 124.615 18.5151 124.357 18.5151C124.082 18.5151 123.793 18.5949 123.487 18.7544C123.182 18.9139 122.904 19.1651 122.653 19.5081C122.402 19.851 122.195 20.2937 122.03 20.836C121.866 21.3704 121.784 22.0164 121.784 22.7741C121.784 23.6115 121.858 24.3772 122.007 25.0711C122.163 25.757 122.395 26.3432 122.7 26.8297C123.005 27.3162 123.385 27.6951 123.84 27.9662C124.294 28.2294 124.827 28.361 125.438 28.361C125.712 28.361 125.97 28.3291 126.213 28.2653C126.464 28.2015 126.699 28.1138 126.918 28.0021C127.137 27.8905 127.345 27.7628 127.541 27.6193C127.744 27.4677 127.94 27.3082 128.128 27.1407L128.422 27.4279C128.242 27.6751 128.011 27.9463 127.729 28.2414C127.447 28.5365 127.106 28.8156 126.706 29.0788C126.307 29.334 125.841 29.5494 125.308 29.7248C124.776 29.8923 124.169 29.9761 123.487 29.9761C122.806 29.9761 122.14 29.8445 121.49 29.5813C120.848 29.3101 120.276 28.9193 119.774 28.4089C119.273 27.8984 118.87 27.2803 118.564 26.5545C118.267 25.8208 118.118 24.9873 118.118 24.0542C118.118 23.3284 118.208 22.6624 118.388 22.0563C118.568 21.4422 118.811 20.8879 119.117 20.3934C119.43 19.8989 119.79 19.4642 120.197 19.0894C120.613 18.7145 121.047 18.4035 121.502 18.1562C121.956 17.901 122.418 17.7096 122.888 17.582C123.366 17.4544 123.824 17.3906 124.263 17.3906C124.842 17.3906 125.347 17.4584 125.778 17.5939C126.209 17.7295 126.565 17.909 126.847 18.1323C127.137 18.3556 127.353 18.6148 127.494 18.9099C127.635 19.197 127.705 19.4961 127.705 19.8072C127.705 20.0385 127.674 20.2618 127.611 20.4771C127.556 20.6845 127.47 20.8679 127.353 21.0274C127.243 21.179 127.102 21.3026 126.93 21.3983C126.757 21.486 126.558 21.5299 126.33 21.5299Z" fill="url(#paint6_linear_1_133)"/>
<path d="M133.756 19.9148C134.053 19.4523 134.371 19.0335 134.707 18.6587C134.848 18.4992 135.001 18.3437 135.166 18.1921C135.33 18.0406 135.499 17.905 135.671 17.7854C135.851 17.6657 136.035 17.57 136.223 17.4982C136.411 17.4265 136.599 17.3906 136.787 17.3906C137.187 17.3906 137.5 17.5142 137.727 17.7614C137.954 18.0007 138.068 18.3397 138.068 18.7783C138.068 19.0495 138.044 19.3127 137.997 19.5679C137.958 19.8152 137.876 20.1182 137.75 20.4771H137.422C137.375 20.2299 137.265 20.0265 137.093 19.867C136.92 19.6995 136.67 19.6158 136.341 19.6158C136.098 19.6158 135.859 19.6636 135.624 19.7593C135.389 19.8471 135.158 19.9587 134.931 20.0943C134.711 20.2299 134.5 20.3774 134.296 20.5369C134.1 20.6965 133.92 20.848 133.756 20.9916V28.7558C133.756 28.8595 133.74 28.9831 133.709 29.1267C133.677 29.2702 133.599 29.4058 133.474 29.5334C133.356 29.661 133.176 29.7687 132.933 29.8564C132.698 29.9521 132.373 30 131.958 30C131.543 30 131.214 29.9482 130.971 29.8445C130.736 29.7488 130.556 29.6331 130.431 29.4975C130.306 29.362 130.227 29.2224 130.196 29.0788C130.165 28.9353 130.149 28.8196 130.149 28.7319V19.4961C130.149 19.2648 130.094 19.0654 129.984 18.898C129.883 18.7225 129.706 18.6348 129.456 18.6348C129.323 18.6348 129.209 18.6587 129.115 18.7065C129.021 18.7544 128.919 18.8222 128.809 18.9099L128.563 18.6108C128.743 18.4593 128.943 18.3118 129.162 18.1682C129.389 18.0167 129.632 17.8851 129.89 17.7734C130.149 17.6617 130.427 17.57 130.725 17.4982C131.022 17.4265 131.336 17.3906 131.664 17.3906C132.001 17.3906 132.287 17.4384 132.522 17.5341C132.765 17.6219 132.961 17.7415 133.11 17.893C133.266 18.0366 133.388 18.2001 133.474 18.3835C133.56 18.567 133.623 18.7544 133.662 18.9458C133.709 19.1293 133.736 19.3087 133.744 19.4842C133.752 19.6517 133.756 19.7952 133.756 19.9148Z" fill="#8896FE"/>
<path d="M133.756 19.9148C134.053 19.4523 134.371 19.0335 134.707 18.6587C134.848 18.4992 135.001 18.3437 135.166 18.1921C135.33 18.0406 135.499 17.905 135.671 17.7854C135.851 17.6657 136.035 17.57 136.223 17.4982C136.411 17.4265 136.599 17.3906 136.787 17.3906C137.187 17.3906 137.5 17.5142 137.727 17.7614C137.954 18.0007 138.068 18.3397 138.068 18.7783C138.068 19.0495 138.044 19.3127 137.997 19.5679C137.958 19.8152 137.876 20.1182 137.75 20.4771H137.422C137.375 20.2299 137.265 20.0265 137.093 19.867C136.92 19.6995 136.67 19.6158 136.341 19.6158C136.098 19.6158 135.859 19.6636 135.624 19.7593C135.389 19.8471 135.158 19.9587 134.931 20.0943C134.711 20.2299 134.5 20.3774 134.296 20.5369C134.1 20.6965 133.92 20.848 133.756 20.9916V28.7558C133.756 28.8595 133.74 28.9831 133.709 29.1267C133.677 29.2702 133.599 29.4058 133.474 29.5334C133.356 29.661 133.176 29.7687 132.933 29.8564C132.698 29.9521 132.373 30 131.958 30C131.543 30 131.214 29.9482 130.971 29.8445C130.736 29.7488 130.556 29.6331 130.431 29.4975C130.306 29.362 130.227 29.2224 130.196 29.0788C130.165 28.9353 130.149 28.8196 130.149 28.7319V19.4961C130.149 19.2648 130.094 19.0654 129.984 18.898C129.883 18.7225 129.706 18.6348 129.456 18.6348C129.323 18.6348 129.209 18.6587 129.115 18.7065C129.021 18.7544 128.919 18.8222 128.809 18.9099L128.563 18.6108C128.743 18.4593 128.943 18.3118 129.162 18.1682C129.389 18.0167 129.632 17.8851 129.89 17.7734C130.149 17.6617 130.427 17.57 130.725 17.4982C131.022 17.4265 131.336 17.3906 131.664 17.3906C132.001 17.3906 132.287 17.4384 132.522 17.5341C132.765 17.6219 132.961 17.7415 133.11 17.893C133.266 18.0366 133.388 18.2001 133.474 18.3835C133.56 18.567 133.623 18.7544 133.662 18.9458C133.709 19.1293 133.736 19.3087 133.744 19.4842C133.752 19.6517 133.756 19.7952 133.756 19.9148Z" fill="url(#paint7_linear_1_133)"/>
<path d="M142.109 24.3174C142.109 24.5726 142.145 24.8517 142.215 25.1548C142.293 25.4499 142.403 25.749 142.544 26.0521C142.685 26.3551 142.857 26.6463 143.061 26.9254C143.273 27.1966 143.511 27.4398 143.778 27.6552C144.052 27.8705 144.353 28.042 144.682 28.1696C145.011 28.2972 145.372 28.361 145.763 28.361C146.037 28.361 146.292 28.3291 146.527 28.2653C146.762 28.2015 146.981 28.1138 147.185 28.0021C147.389 27.8905 147.584 27.7628 147.772 27.6193C147.96 27.4677 148.148 27.3082 148.336 27.1407L148.63 27.4279C148.45 27.6751 148.219 27.9463 147.937 28.2414C147.655 28.5365 147.314 28.8156 146.915 29.0788C146.515 29.334 146.049 29.5494 145.517 29.7248C144.984 29.8923 144.377 29.9761 143.695 29.9761C143.014 29.9761 142.348 29.8525 141.698 29.6052C141.056 29.35 140.484 28.9711 139.983 28.4687C139.482 27.9662 139.078 27.3401 138.773 26.5904C138.475 25.8407 138.326 24.9634 138.326 23.9585C138.326 23.2327 138.416 22.5667 138.596 21.9606C138.777 21.3544 139.019 20.8081 139.325 20.3216C139.638 19.8351 139.998 19.4084 140.406 19.0415C140.821 18.6746 141.256 18.3716 141.71 18.1323C142.164 17.8851 142.626 17.7016 143.096 17.582C143.574 17.4544 144.032 17.3906 144.471 17.3906C145.051 17.3906 145.556 17.4544 145.987 17.582C146.417 17.7096 146.774 17.8811 147.056 18.0964C147.346 18.3118 147.561 18.563 147.702 18.8501C147.843 19.1293 147.913 19.4243 147.913 19.7354C147.913 20.1103 147.808 20.4492 147.596 20.7523C147.385 21.0474 147.103 21.3066 146.75 21.5299L142.109 24.3174ZM144.471 21.8888C144.573 21.825 144.655 21.7652 144.718 21.7094C144.788 21.6456 144.843 21.5738 144.882 21.494C144.921 21.4063 144.949 21.3026 144.964 21.183C144.988 21.0554 145 20.8998 145 20.7164C145 20.517 144.976 20.2977 144.929 20.0584C144.89 19.8112 144.819 19.5799 144.718 19.3645C144.616 19.1492 144.487 18.9697 144.33 18.8262C144.173 18.6826 143.985 18.6108 143.766 18.6108C143.484 18.6108 143.241 18.6986 143.038 18.874C142.842 19.0415 142.677 19.2608 142.544 19.532C142.419 19.8032 142.317 20.1142 142.239 20.4652C142.168 20.8081 142.113 21.1551 142.074 21.506C142.035 21.8569 142.011 22.1959 142.004 22.5229C141.996 22.8419 141.992 23.1131 141.992 23.3364L144.471 21.8888Z" fill="#8896FE"/>
<path d="M142.109 24.3174C142.109 24.5726 142.145 24.8517 142.215 25.1548C142.293 25.4499 142.403 25.749 142.544 26.0521C142.685 26.3551 142.857 26.6463 143.061 26.9254C143.273 27.1966 143.511 27.4398 143.778 27.6552C144.052 27.8705 144.353 28.042 144.682 28.1696C145.011 28.2972 145.372 28.361 145.763 28.361C146.037 28.361 146.292 28.3291 146.527 28.2653C146.762 28.2015 146.981 28.1138 147.185 28.0021C147.389 27.8905 147.584 27.7628 147.772 27.6193C147.96 27.4677 148.148 27.3082 148.336 27.1407L148.63 27.4279C148.45 27.6751 148.219 27.9463 147.937 28.2414C147.655 28.5365 147.314 28.8156 146.915 29.0788C146.515 29.334 146.049 29.5494 145.517 29.7248C144.984 29.8923 144.377 29.9761 143.695 29.9761C143.014 29.9761 142.348 29.8525 141.698 29.6052C141.056 29.35 140.484 28.9711 139.983 28.4687C139.482 27.9662 139.078 27.3401 138.773 26.5904C138.475 25.8407 138.326 24.9634 138.326 23.9585C138.326 23.2327 138.416 22.5667 138.596 21.9606C138.777 21.3544 139.019 20.8081 139.325 20.3216C139.638 19.8351 139.998 19.4084 140.406 19.0415C140.821 18.6746 141.256 18.3716 141.71 18.1323C142.164 17.8851 142.626 17.7016 143.096 17.582C143.574 17.4544 144.032 17.3906 144.471 17.3906C145.051 17.3906 145.556 17.4544 145.987 17.582C146.417 17.7096 146.774 17.8811 147.056 18.0964C147.346 18.3118 147.561 18.563 147.702 18.8501C147.843 19.1293 147.913 19.4243 147.913 19.7354C147.913 20.1103 147.808 20.4492 147.596 20.7523C147.385 21.0474 147.103 21.3066 146.75 21.5299L142.109 24.3174ZM144.471 21.8888C144.573 21.825 144.655 21.7652 144.718 21.7094C144.788 21.6456 144.843 21.5738 144.882 21.494C144.921 21.4063 144.949 21.3026 144.964 21.183C144.988 21.0554 145 20.8998 145 20.7164C145 20.517 144.976 20.2977 144.929 20.0584C144.89 19.8112 144.819 19.5799 144.718 19.3645C144.616 19.1492 144.487 18.9697 144.33 18.8262C144.173 18.6826 143.985 18.6108 143.766 18.6108C143.484 18.6108 143.241 18.6986 143.038 18.874C142.842 19.0415 142.677 19.2608 142.544 19.532C142.419 19.8032 142.317 20.1142 142.239 20.4652C142.168 20.8081 142.113 21.1551 142.074 21.506C142.035 21.8569 142.011 22.1959 142.004 22.5229C141.996 22.8419 141.992 23.1131 141.992 23.3364L144.471 21.8888Z" fill="url(#paint8_linear_1_133)"/>
<path d="M155.503 23.6115C155.503 23.4122 155.441 23.2606 155.315 23.1569C155.19 23.0532 155.029 23.0014 154.834 23.0014C154.559 23.0014 154.297 23.0652 154.046 23.1928C153.804 23.3204 153.588 23.5079 153.4 23.7551C153.212 24.0023 153.063 24.3094 152.954 24.6763C152.844 25.0352 152.789 25.4539 152.789 25.9324C152.789 26.395 152.821 26.7779 152.883 27.0809C152.954 27.384 153.044 27.6273 153.153 27.8107C153.271 27.9862 153.404 28.1098 153.553 28.1816C153.702 28.2533 153.858 28.2892 154.023 28.2892C154.227 28.2892 154.418 28.2374 154.599 28.1337C154.779 28.0221 154.935 27.8825 155.069 27.715C155.202 27.5475 155.307 27.3601 155.386 27.1527C155.464 26.9453 155.503 26.738 155.503 26.5306V23.6115ZM153.635 18.3716C153.369 18.3716 153.122 18.4035 152.895 18.4673C152.668 18.5311 152.472 18.6108 152.308 18.7065C152.143 18.8023 152.014 18.9099 151.92 19.0296C151.826 19.1412 151.779 19.2489 151.779 19.3526C151.779 19.4722 151.838 19.5599 151.955 19.6158C152.08 19.6636 152.217 19.7234 152.366 19.7952C152.515 19.859 152.648 19.9547 152.766 20.0823C152.891 20.202 152.954 20.3894 152.954 20.6446C152.954 20.8121 152.918 20.9676 152.848 21.1112C152.785 21.2468 152.695 21.3704 152.578 21.4821C152.468 21.5857 152.335 21.6695 152.178 21.7333C152.029 21.7891 151.873 21.817 151.708 21.817C151.27 21.817 150.913 21.6655 150.639 21.3624C150.373 21.0593 150.24 20.6566 150.24 20.1541C150.24 19.6676 150.365 19.2529 150.616 18.9099C150.866 18.559 151.191 18.2719 151.591 18.0486C151.998 17.8252 152.456 17.6617 152.965 17.5581C153.475 17.4464 153.984 17.3906 154.493 17.3906C155.104 17.3906 155.687 17.4584 156.243 17.5939C156.8 17.7295 157.289 17.9449 157.712 18.24C158.143 18.5351 158.484 18.9099 158.734 19.3645C158.993 19.8191 159.122 20.3695 159.122 21.0155V27.7748C159.122 27.8466 159.126 27.9263 159.134 28.0141C159.142 28.1018 159.161 28.1816 159.192 28.2533C159.224 28.3251 159.271 28.3849 159.333 28.4328C159.396 28.4806 159.486 28.5046 159.604 28.5046C159.745 28.5046 159.874 28.4527 159.991 28.3491C160.117 28.2374 160.226 28.1257 160.32 28.0141L160.614 28.2653C160.497 28.4328 160.356 28.6162 160.191 28.8156C160.027 29.015 159.827 29.2024 159.592 29.3779C159.357 29.5534 159.083 29.7009 158.77 29.8205C158.456 29.9402 158.1 30 157.7 30C157.207 30 156.768 29.8525 156.384 29.5574C156.001 29.2543 155.75 28.7917 155.633 28.1696C155.382 28.5126 155.119 28.7997 154.845 29.031C154.579 29.2623 154.305 29.4497 154.023 29.5932C153.741 29.7368 153.455 29.8405 153.165 29.9043C152.883 29.9681 152.597 30 152.308 30C151.932 30 151.567 29.9402 151.215 29.8205C150.862 29.7009 150.545 29.5135 150.263 29.2583C149.989 28.9951 149.766 28.6561 149.594 28.2414C149.429 27.8266 149.347 27.3202 149.347 26.722C149.347 25.9962 149.488 25.4021 149.77 24.9395C150.052 24.4769 150.42 24.0901 150.874 23.779C151.336 23.46 151.857 23.1888 152.437 22.9655C153.024 22.7422 153.623 22.5069 154.234 22.2597C154.689 22.0762 155.018 21.8051 155.221 21.4462C155.433 21.0793 155.539 20.7044 155.539 20.3216C155.539 19.7314 155.366 19.2608 155.022 18.9099C154.685 18.551 154.223 18.3716 153.635 18.3716Z" fill="#8896FE"/>
<path d="M155.503 23.6115C155.503 23.4122 155.441 23.2606 155.315 23.1569C155.19 23.0532 155.029 23.0014 154.834 23.0014C154.559 23.0014 154.297 23.0652 154.046 23.1928C153.804 23.3204 153.588 23.5079 153.4 23.7551C153.212 24.0023 153.063 24.3094 152.954 24.6763C152.844 25.0352 152.789 25.4539 152.789 25.9324C152.789 26.395 152.821 26.7779 152.883 27.0809C152.954 27.384 153.044 27.6273 153.153 27.8107C153.271 27.9862 153.404 28.1098 153.553 28.1816C153.702 28.2533 153.858 28.2892 154.023 28.2892C154.227 28.2892 154.418 28.2374 154.599 28.1337C154.779 28.0221 154.935 27.8825 155.069 27.715C155.202 27.5475 155.307 27.3601 155.386 27.1527C155.464 26.9453 155.503 26.738 155.503 26.5306V23.6115ZM153.635 18.3716C153.369 18.3716 153.122 18.4035 152.895 18.4673C152.668 18.5311 152.472 18.6108 152.308 18.7065C152.143 18.8023 152.014 18.9099 151.92 19.0296C151.826 19.1412 151.779 19.2489 151.779 19.3526C151.779 19.4722 151.838 19.5599 151.955 19.6158C152.08 19.6636 152.217 19.7234 152.366 19.7952C152.515 19.859 152.648 19.9547 152.766 20.0823C152.891 20.202 152.954 20.3894 152.954 20.6446C152.954 20.8121 152.918 20.9676 152.848 21.1112C152.785 21.2468 152.695 21.3704 152.578 21.4821C152.468 21.5857 152.335 21.6695 152.178 21.7333C152.029 21.7891 151.873 21.817 151.708 21.817C151.27 21.817 150.913 21.6655 150.639 21.3624C150.373 21.0593 150.24 20.6566 150.24 20.1541C150.24 19.6676 150.365 19.2529 150.616 18.9099C150.866 18.559 151.191 18.2719 151.591 18.0486C151.998 17.8252 152.456 17.6617 152.965 17.5581C153.475 17.4464 153.984 17.3906 154.493 17.3906C155.104 17.3906 155.687 17.4584 156.243 17.5939C156.8 17.7295 157.289 17.9449 157.712 18.24C158.143 18.5351 158.484 18.9099 158.734 19.3645C158.993 19.8191 159.122 20.3695 159.122 21.0155V27.7748C159.122 27.8466 159.126 27.9263 159.134 28.0141C159.142 28.1018 159.161 28.1816 159.192 28.2533C159.224 28.3251 159.271 28.3849 159.333 28.4328C159.396 28.4806 159.486 28.5046 159.604 28.5046C159.745 28.5046 159.874 28.4527 159.991 28.3491C160.117 28.2374 160.226 28.1257 160.32 28.0141L160.614 28.2653C160.497 28.4328 160.356 28.6162 160.191 28.8156C160.027 29.015 159.827 29.2024 159.592 29.3779C159.357 29.5534 159.083 29.7009 158.77 29.8205C158.456 29.9402 158.1 30 157.7 30C157.207 30 156.768 29.8525 156.384 29.5574C156.001 29.2543 155.75 28.7917 155.633 28.1696C155.382 28.5126 155.119 28.7997 154.845 29.031C154.579 29.2623 154.305 29.4497 154.023 29.5932C153.741 29.7368 153.455 29.8405 153.165 29.9043C152.883 29.9681 152.597 30 152.308 30C151.932 30 151.567 29.9402 151.215 29.8205C150.862 29.7009 150.545 29.5135 150.263 29.2583C149.989 28.9951 149.766 28.6561 149.594 28.2414C149.429 27.8266 149.347 27.3202 149.347 26.722C149.347 25.9962 149.488 25.4021 149.77 24.9395C150.052 24.4769 150.42 24.0901 150.874 23.779C151.336 23.46 151.857 23.1888 152.437 22.9655C153.024 22.7422 153.623 22.5069 154.234 22.2597C154.689 22.0762 155.018 21.8051 155.221 21.4462C155.433 21.0793 155.539 20.7044 155.539 20.3216C155.539 19.7314 155.366 19.2608 155.022 18.9099C154.685 18.551 154.223 18.3716 153.635 18.3716Z" fill="url(#paint9_linear_1_133)"/>
<path d="M172.234 28.7558C172.234 28.8595 172.218 28.9831 172.187 29.1267C172.156 29.2702 172.077 29.4058 171.952 29.5334C171.834 29.661 171.654 29.7687 171.411 29.8564C171.169 29.9521 170.84 30 170.425 30C170.009 30 169.68 29.9482 169.438 29.8445C169.203 29.7488 169.022 29.6331 168.897 29.4975C168.78 29.362 168.705 29.2224 168.674 29.0788C168.643 28.9353 168.627 28.8196 168.627 28.7319V20.2738C168.627 20.1621 168.611 20.0504 168.58 19.9388C168.549 19.8191 168.502 19.7115 168.439 19.6158C168.376 19.5201 168.298 19.4443 168.204 19.3885C168.11 19.3247 168 19.2928 167.875 19.2928C167.664 19.2928 167.456 19.3566 167.252 19.4842C167.049 19.6038 166.857 19.7434 166.677 19.9029C166.504 20.0624 166.352 20.2219 166.218 20.3814C166.093 20.5409 166.003 20.6606 165.948 20.7403V28.7558C165.948 28.8595 165.932 28.9831 165.901 29.1267C165.87 29.2702 165.792 29.4058 165.666 29.5334C165.549 29.661 165.369 29.7687 165.126 29.8564C164.891 29.9521 164.566 30 164.151 30C163.735 30 163.406 29.9482 163.164 29.8445C162.929 29.7488 162.749 29.6331 162.623 29.4975C162.498 29.362 162.42 29.2224 162.388 29.0788C162.357 28.9353 162.341 28.8196 162.341 28.7319V19.4961C162.341 19.2648 162.286 19.0654 162.177 18.898C162.075 18.7225 161.899 18.6348 161.648 18.6348C161.515 18.6348 161.401 18.6587 161.307 18.7065C161.213 18.7544 161.111 18.8222 161.002 18.9099L160.755 18.6108C160.935 18.4593 161.135 18.3118 161.354 18.1682C161.581 18.0167 161.824 17.8851 162.083 17.7734C162.341 17.6617 162.619 17.57 162.917 17.4982C163.215 17.4265 163.528 17.3906 163.857 17.3906C164.366 17.3906 164.762 17.4783 165.043 17.6538C165.325 17.8213 165.533 18.0246 165.666 18.2639C165.799 18.5032 165.878 18.7544 165.901 19.0176C165.932 19.2728 165.948 19.4882 165.948 19.6636C166.316 19.2409 166.712 18.8621 167.135 18.5271C167.307 18.3835 167.495 18.244 167.699 18.1084C167.91 17.9728 168.126 17.8532 168.345 17.7495C168.564 17.6378 168.791 17.5501 169.026 17.4863C169.261 17.4225 169.496 17.3906 169.731 17.3906C170.186 17.3906 170.573 17.4743 170.895 17.6418C171.216 17.8093 171.474 18.0127 171.67 18.2519C171.866 18.4832 172.007 18.7305 172.093 18.9937C172.187 19.2489 172.234 19.4722 172.234 19.6636C172.61 19.2409 173.005 18.8621 173.421 18.5271C173.593 18.3835 173.781 18.244 173.984 18.1084C174.188 17.9728 174.4 17.8532 174.619 17.7495C174.846 17.6378 175.073 17.5501 175.3 17.4863C175.535 17.4225 175.77 17.3906 176.005 17.3906C176.46 17.3906 176.847 17.4783 177.168 17.6538C177.49 17.8213 177.748 18.0446 177.944 18.3237C178.14 18.6029 178.281 18.9179 178.367 19.2688C178.461 19.6198 178.508 19.9707 178.508 20.3216V27.727C178.508 27.7987 178.512 27.8785 178.52 27.9662C178.527 28.046 178.547 28.1257 178.578 28.2055C178.61 28.2773 178.657 28.3371 178.719 28.3849C178.79 28.4328 178.88 28.4567 178.99 28.4567C179.138 28.4567 179.272 28.4049 179.389 28.3012C179.507 28.1895 179.616 28.0779 179.718 27.9662L180 28.2175C179.89 28.3849 179.745 28.5724 179.565 28.7797C179.385 28.9791 179.17 29.1705 178.919 29.354C178.676 29.5374 178.39 29.689 178.061 29.8086C177.74 29.9362 177.376 30 176.969 30C176.624 30 176.323 29.9521 176.064 29.8564C175.813 29.7687 175.598 29.6491 175.418 29.4975C175.246 29.338 175.116 29.1546 175.03 28.9472C174.944 28.7319 174.901 28.5046 174.901 28.2653V20.2738C174.901 20.1621 174.885 20.0504 174.854 19.9388C174.823 19.8191 174.776 19.7115 174.713 19.6158C174.658 19.5201 174.584 19.4443 174.49 19.3885C174.396 19.3247 174.286 19.2928 174.161 19.2928C173.949 19.2928 173.738 19.3566 173.526 19.4842C173.323 19.6038 173.131 19.7434 172.951 19.9029C172.778 20.0624 172.629 20.2219 172.504 20.3814C172.379 20.5409 172.289 20.6606 172.234 20.7403V28.7558Z" fill="#8896FE"/>
<path d="M172.234 28.7558C172.234 28.8595 172.218 28.9831 172.187 29.1267C172.156 29.2702 172.077 29.4058 171.952 29.5334C171.834 29.661 171.654 29.7687 171.411 29.8564C171.169 29.9521 170.84 30 170.425 30C170.009 30 169.68 29.9482 169.438 29.8445C169.203 29.7488 169.022 29.6331 168.897 29.4975C168.78 29.362 168.705 29.2224 168.674 29.0788C168.643 28.9353 168.627 28.8196 168.627 28.7319V20.2738C168.627 20.1621 168.611 20.0504 168.58 19.9388C168.549 19.8191 168.502 19.7115 168.439 19.6158C168.376 19.5201 168.298 19.4443 168.204 19.3885C168.11 19.3247 168 19.2928 167.875 19.2928C167.664 19.2928 167.456 19.3566 167.252 19.4842C167.049 19.6038 166.857 19.7434 166.677 19.9029C166.504 20.0624 166.352 20.2219 166.218 20.3814C166.093 20.5409 166.003 20.6606 165.948 20.7403V28.7558C165.948 28.8595 165.932 28.9831 165.901 29.1267C165.87 29.2702 165.792 29.4058 165.666 29.5334C165.549 29.661 165.369 29.7687 165.126 29.8564C164.891 29.9521 164.566 30 164.151 30C163.735 30 163.406 29.9482 163.164 29.8445C162.929 29.7488 162.749 29.6331 162.623 29.4975C162.498 29.362 162.42 29.2224 162.388 29.0788C162.357 28.9353 162.341 28.8196 162.341 28.7319V19.4961C162.341 19.2648 162.286 19.0654 162.177 18.898C162.075 18.7225 161.899 18.6348 161.648 18.6348C161.515 18.6348 161.401 18.6587 161.307 18.7065C161.213 18.7544 161.111 18.8222 161.002 18.9099L160.755 18.6108C160.935 18.4593 161.135 18.3118 161.354 18.1682C161.581 18.0167 161.824 17.8851 162.083 17.7734C162.341 17.6617 162.619 17.57 162.917 17.4982C163.215 17.4265 163.528 17.3906 163.857 17.3906C164.366 17.3906 164.762 17.4783 165.043 17.6538C165.325 17.8213 165.533 18.0246 165.666 18.2639C165.799 18.5032 165.878 18.7544 165.901 19.0176C165.932 19.2728 165.948 19.4882 165.948 19.6636C166.316 19.2409 166.712 18.8621 167.135 18.5271C167.307 18.3835 167.495 18.244 167.699 18.1084C167.91 17.9728 168.126 17.8532 168.345 17.7495C168.564 17.6378 168.791 17.5501 169.026 17.4863C169.261 17.4225 169.496 17.3906 169.731 17.3906C170.186 17.3906 170.573 17.4743 170.895 17.6418C171.216 17.8093 171.474 18.0127 171.67 18.2519C171.866 18.4832 172.007 18.7305 172.093 18.9937C172.187 19.2489 172.234 19.4722 172.234 19.6636C172.61 19.2409 173.005 18.8621 173.421 18.5271C173.593 18.3835 173.781 18.244 173.984 18.1084C174.188 17.9728 174.4 17.8532 174.619 17.7495C174.846 17.6378 175.073 17.5501 175.3 17.4863C175.535 17.4225 175.77 17.3906 176.005 17.3906C176.46 17.3906 176.847 17.4783 177.168 17.6538C177.49 17.8213 177.748 18.0446 177.944 18.3237C178.14 18.6029 178.281 18.9179 178.367 19.2688C178.461 19.6198 178.508 19.9707 178.508 20.3216V27.727C178.508 27.7987 178.512 27.8785 178.52 27.9662C178.527 28.046 178.547 28.1257 178.578 28.2055C178.61 28.2773 178.657 28.3371 178.719 28.3849C178.79 28.4328 178.88 28.4567 178.99 28.4567C179.138 28.4567 179.272 28.4049 179.389 28.3012C179.507 28.1895 179.616 28.0779 179.718 27.9662L180 28.2175C179.89 28.3849 179.745 28.5724 179.565 28.7797C179.385 28.9791 179.17 29.1705 178.919 29.354C178.676 29.5374 178.39 29.689 178.061 29.8086C177.74 29.9362 177.376 30 176.969 30C176.624 30 176.323 29.9521 176.064 29.8564C175.813 29.7687 175.598 29.6491 175.418 29.4975C175.246 29.338 175.116 29.1546 175.03 28.9472C174.944 28.7319 174.901 28.5046 174.901 28.2653V20.2738C174.901 20.1621 174.885 20.0504 174.854 19.9388C174.823 19.8191 174.776 19.7115 174.713 19.6158C174.658 19.5201 174.584 19.4443 174.49 19.3885C174.396 19.3247 174.286 19.2928 174.161 19.2928C173.949 19.2928 173.738 19.3566 173.526 19.4842C173.323 19.6038 173.131 19.7434 172.951 19.9029C172.778 20.0624 172.629 20.2219 172.504 20.3814C172.379 20.5409 172.289 20.6606 172.234 20.7403V28.7558Z" fill="url(#paint10_linear_1_133)"/>
<defs>
<linearGradient id="paint0_linear_1_133" x1="-6.24787" y1="-1.04841e-07" x2="36.1419" y2="2.21528" gradientUnits="userSpaceOnUse">
<stop stop-color="#DFEBFF"/>
<stop offset="1" stop-color="#88ADCA"/>
</linearGradient>
<linearGradient id="paint1_linear_1_133" x1="5.81268" y1="26.5887" x2="26.0487" y2="27.2184" gradientUnits="userSpaceOnUse">
<stop stop-color="#DFEBFF"/>
<stop offset="1" stop-color="#88ADCA"/>
</linearGradient>
<linearGradient id="paint2_linear_1_133" x1="3.38523" y1="25.8671" x2="18.0812" y2="26.806" gradientUnits="userSpaceOnUse">
<stop stop-color="#DFEBFF"/>
<stop offset="1" stop-color="#88ADCA"/>
</linearGradient>
<linearGradient id="paint3_linear_1_133" x1="60.884" y1="13" x2="201.543" y2="50.1289" gradientUnits="userSpaceOnUse">
<stop stop-color="#DFEBFF"/>
<stop offset="1" stop-color="#88ADCA"/>
</linearGradient>
<linearGradient id="paint4_linear_1_133" x1="60.884" y1="13" x2="201.543" y2="50.1289" gradientUnits="userSpaceOnUse">
<stop stop-color="#DFEBFF"/>
<stop offset="1" stop-color="#88ADCA"/>
</linearGradient>
<linearGradient id="paint5_linear_1_133" x1="60.884" y1="13" x2="201.543" y2="50.1289" gradientUnits="userSpaceOnUse">
<stop stop-color="#DFEBFF"/>
<stop offset="1" stop-color="#88ADCA"/>
</linearGradient>
<linearGradient id="paint6_linear_1_133" x1="60.884" y1="13" x2="201.543" y2="50.1289" gradientUnits="userSpaceOnUse">
<stop stop-color="#DFEBFF"/>
<stop offset="1" stop-color="#88ADCA"/>
</linearGradient>
<linearGradient id="paint7_linear_1_133" x1="60.884" y1="13" x2="201.543" y2="50.1289" gradientUnits="userSpaceOnUse">
<stop stop-color="#DFEBFF"/>
<stop offset="1" stop-color="#88ADCA"/>
</linearGradient>
<linearGradient id="paint8_linear_1_133" x1="60.884" y1="13" x2="201.543" y2="50.1289" gradientUnits="userSpaceOnUse">
<stop stop-color="#DFEBFF"/>
<stop offset="1" stop-color="#88ADCA"/>
</linearGradient>
<linearGradient id="paint9_linear_1_133" x1="60.884" y1="13" x2="201.543" y2="50.1289" gradientUnits="userSpaceOnUse">
<stop stop-color="#DFEBFF"/>
<stop offset="1" stop-color="#88ADCA"/>
</linearGradient>
<linearGradient id="paint10_linear_1_133" x1="60.884" y1="13" x2="201.543" y2="50.1289" gradientUnits="userSpaceOnUse">
<stop stop-color="#DFEBFF"/>
<stop offset="1" stop-color="#88ADCA"/>
</linearGradient>
</defs>
</svg>
